<?xml version="1.0" encoding="utf-8"?>
<!-- Generator: Adobe Illustrator 23.0.1, SVG Export Plug-In . SVG Version: 6.00 Build 0)  -->
<svg version="1.1" id="Layer_1" xmlns="http://www.w3.org/2000/svg" xmlns:xlink="http://www.w3.org/1999/xlink" x="0px" y="0px"
	 viewBox="0 0 512 512" style="enable-background:new 0 0 512 512;" xml:space="preserve">
<style type="text/css">
	.st0{opacity:0.5;fill:url(#SVGID_1_);}
	.st1{opacity:0.5;fill:url(#SVGID_2_);}
	.st2{opacity:0.5;fill:url(#SVGID_3_);}
	.st3{fill:#868686;stroke:#575756;stroke-width:3;stroke-linejoin:bevel;stroke-miterlimit:10;}
	.st4{fill:#FFFFFF;stroke:#575756;stroke-width:3;stroke-linejoin:bevel;stroke-miterlimit:10;}
	.st5{fill:#881002;stroke:#575756;stroke-width:3;stroke-linejoin:bevel;stroke-miterlimit:10;}
	.st6{fill:#0C4981;stroke:#575756;stroke-width:3;stroke-linejoin:bevel;stroke-miterlimit:10;}
	.st7{fill:#FFFFFF;stroke:#FFFFFF;stroke-width:3;stroke-linejoin:bevel;stroke-miterlimit:10;}
	.st8{fill:none;stroke:#575756;stroke-width:4;stroke-linecap:round;stroke-linejoin:bevel;stroke-miterlimit:10;}
</style>
<g>
	
		<radialGradient id="SVGID_1_" cx="660.0275" cy="-877.1776" r="127.6813" gradientTransform="matrix(0.7003 -0.7003 0.7003 0.7003 461.5326 1206.2368)" gradientUnits="userSpaceOnUse">
		<stop  offset="0" style="stop-color:#2C669E"/>
		<stop  offset="0.9" style="stop-color:#FFFFFF"/>
	</radialGradient>
	<circle class="st0" cx="309.47" cy="129.77" r="126.45"/>
	
		<radialGradient id="SVGID_2_" cx="405.4814" cy="-874.0276" r="127.6813" gradientTransform="matrix(0.7003 -0.7003 0.7003 0.7003 460.5569 1207.1617)" gradientUnits="userSpaceOnUse">
		<stop  offset="0" style="stop-color:#64140E"/>
		<stop  offset="0.1215" style="stop-color:#803E39"/>
		<stop  offset="0.3343" style="stop-color:#AC827F"/>
		<stop  offset="0.5263" style="stop-color:#D0B8B6"/>
		<stop  offset="0.6904" style="stop-color:#EADEDE"/>
		<stop  offset="0.8204" style="stop-color:#F9F6F6"/>
		<stop  offset="0.9" style="stop-color:#FFFFFF"/>
	</radialGradient>
	<circle class="st1" cx="132.45" cy="311.16" r="126.45"/>
	
		<radialGradient id="SVGID_3_" cx="530.5179" cy="-648.1075" r="127.6813" gradientTransform="matrix(0.7003 -0.7003 0.7003 0.7003 461.8968 1207.5861)" gradientUnits="userSpaceOnUse">
		<stop  offset="0" style="stop-color:#676767"/>
		<stop  offset="0.4965" style="stop-color:#BDBDBD"/>
		<stop  offset="0.9" style="stop-color:#FFFFFF"/>
	</radialGradient>
	<circle class="st2" cx="379.55" cy="382.23" r="126.45"/>
	<g>
		<polygon class="st3" points="360.87,361.31 269.27,385.85 293.66,294.82 385.26,270.27 		"/>
		<polygon class="st4" points="452.06,336.34 427.51,427.95 360.87,361.31 385.42,269.7 		"/>
		<polygon class="st4" points="427.51,427.95 335.91,452.49 269.27,385.85 360.87,361.31 		"/>
	</g>
	<polygon class="st4" points="149.74,305.04 58.14,329.58 82.53,238.55 174.13,214.01 	"/>
	<polygon class="st5" points="240.93,280.08 216.38,371.68 149.74,305.04 174.29,213.44 	"/>
	<polygon class="st4" points="216.38,371.68 124.78,396.23 58.14,329.58 149.74,305.04 	"/>
	<g>
		<polygon class="st4" points="304.3,151.31 212.7,175.86 237.09,84.83 328.69,60.28 		"/>
		<polygon class="st4" points="395.49,126.35 370.94,217.95 304.3,151.31 328.85,59.71 		"/>
		<polygon class="st6" points="370.94,217.95 279.34,242.5 212.7,175.86 304.3,151.31 		"/>
	</g>
	<g>
		<polygon class="st7" points="271.88,272.31 180.28,296.86 204.67,205.83 296.27,181.28 		"/>
		<polygon class="st7" points="363.06,247.35 338.52,338.95 271.88,272.31 296.42,180.71 		"/>
		<polygon class="st7" points="338.52,338.95 246.92,363.5 180.28,296.86 271.88,272.31 		"/>
	</g>
	<g>
		<line class="st8" x1="271.88" y1="272.31" x2="327.76" y2="328.2"/>
		<line class="st8" x1="195.54" y1="292.77" x2="271.88" y2="272.31"/>
		<line class="st8" x1="292.21" y1="196.45" x2="271.88" y2="272.31"/>
	</g>
</g>
</svg>
